<?xml version="1.0" standalone="no"?>
<!DOCTYPE svg PUBLIC "-//W3C//DTD SVG 20010904//EN"
 "http://www.w3.org/TR/2001/REC-SVG-20010904/DTD/svg10.dtd">
<svg version="1.0" xmlns="http://www.w3.org/2000/svg"
 width="1000.000000pt" height="1000.000000pt" viewBox="0 0 1000.000000 1000.000000"
 preserveAspectRatio="xMidYMid meet">

<g transform="translate(0.000000,1000.000000) scale(0.100000,-0.100000)"
fill="#000000" stroke="none">
<path d="M0 5000 l0 -5000 5000 0 5000 0 0 5000 0 5000 -5000 0 -5000 0 0
-5000z m4315 2283 c368 -843 672 -1533 675 -1533 3 0 314 690 691 1533 l685
1532 1123 3 c1030 2 1123 1 1117 -14 -3 -9 -587 -1141 -1296 -2516 l-1290
-2499 0 -1250 0 -1249 -1030 0 -1030 0 0 1260 0 1261 -1275 2499 c-701 1375
-1275 2502 -1275 2505 0 3 503 4 1117 3 l1117 -3 671 -1532z"/>
</g>
</svg>
