<?xml version="1.0" encoding="utf-8" standalone="yes"?>
<!DOCTYPE svg PUBLIC "-//W3C//DTD SVG 1.1//EN" "http://www.w3.org/Graphics/SVG/1.1/DTD/svg11.dtd">
<svg width="1070" height="866" viewBox="0 0 1070 866" style="fill:none;stroke:none;fill-rule:evenodd;clip-rule:evenodd;stroke-linecap:round;stroke-linejoin:round;stroke-miterlimit:1.5;" version="1.1" xmlns="http://www.w3.org/2000/svg" xmlns:xlink="http://www.w3.org/1999/xlink"><style class="text-font-style fontImports" data-font-family="Red Hat Text">@font-face {font-family: 'Red Hat Text Regular';src: url(https://fonts.napkin.ai/google-fonts/20250207/red-hat-text/red-hat-text_regular.ttf) format("truetype");font-weight: normal;font-style: normal;}</style><g id="items" style="isolation: isolate"><g id="blend" style="mix-blend-mode: normal"><g id="g-root-5.g-5_fr_zp2ls61npakg6-fill" data-item-order="-795590" transform="translate(243.06201171875, 459.23095703125)"><g id="5.g-5_fr_zp2ls61npakg6-fill" stroke="none" fill="#38b2ac"><g><path d="M 292.376 196.196L 472.877 10L 484.233 21.7143C 506.715 44.9066 537.637 57.9972 569.938 57.9972L 569.944 57.9972C 563.621 57.9972 557.568 60.5596 553.168 65.0993L 361.305 263.016C 309.885 316.058 239.164 345.997 165.29 345.997L 10 345.997L 10 345.927L 40.9377 297.997L 10 250.067L 10 249.997L 165.29 249.997C 213.187 249.997 259.038 230.586 292.376 196.196Z"></path></g></g></g><g id="g-root-4.g-4_fr_v993nq1npal8g-fill" data-item-order="-795586" transform="translate(243.06201171875, 459.21099853515625)"><g id="4.g-4_fr_v993nq1npal8g-fill" stroke="none" fill="#38b2ac"><g><path d="M 384.737 58.0154C 344.692 58.0154 306.356 41.7881 278.481 13.0378L 275.535 10L 197.791 90.2073C 187.996 100.3119 174.525 106.0154 160.452 106.0154L 10 106.0154L 10 106.0852L 40.9377 154.015L 10 201.946L 10 202.015L 160.452 202.015C 200.505 202.015 238.847 185.782 266.723 157.023L 347.368 73.8235C 357.162 63.7189 370.634 58.0154 384.706 58.0154L 384.737 58.0154Z"></path></g></g></g><g id="g-root-3.g-3_fr_me8khy1npaive-fill" data-item-order="-795582" transform="translate(243, 411.22698974609375)"><g id="3.g-3_fr_me8khy1npaive-fill" stroke="none" fill="#38b2ac"><g><path d="M 10 105.9997L 41 58L 10 10.0003L 229.074 10L 275.598 57.9846L 229.057 106L 10 105.9997Z"></path></g></g></g><g id="g-root-2.g-2_fr_me8khy1npaivg-fill" data-item-order="-795578" transform="translate(243.0059814453125, 267.22698974609375)"><g id="2.g-2_fr_me8khy1npaivg-fill" stroke="none" fill="#38b2ac"><g><path d="M 10 105.9926L 40.9937 58L 10 10.0074L 10 10L 160.517 10C 200.562 10 238.898 26.2274 266.773 54.9777L 347.46 138.197C 357.254 148.298 370.723 154 384.793 154L 426.4 154L 472.933 202.003L 426.404 250L 384.793 250C 344.748 250 306.412 233.773 278.537 205.022L 197.85 121.803C 188.056 111.702 174.587 106 160.517 106L 10 106L 10 105.9926Z"></path></g></g></g><g id="g-root-1.g-1_fr_hyf2di1npajnq-fill" data-item-order="-795574" transform="translate(243.062255859375, 123.22698974609375)"><g id="1.g-1_fr_hyf2di1npajnq-fill" stroke="none" fill="#38b2ac"><g><path d="M 10 105.9302L 40.9377 58L 10 10.0698L 10 10L 165.288 10C 239.164 10 309.886 39.9398 361.305 92.9832L 553.162 290.898C 557.563 295.438 563.615 298 569.938 298L 759.938 298L 790.938 346L 759.938 394L 569.938 394C 537.637 394 506.715 380.909 484.233 357.717L 292.376 159.802C 259.038 125.412 213.186 106 165.288 106L 10 106L 10 105.9302Z"></path></g></g></g><g id="g-root-tx_promotin_1qehiva1npbzt8-fill" data-item-order="0" transform="translate(87, 279.22698974609375)"><g id="tx_promotin_1qehiva1npbzt8-fill" stroke="none" fill="#1a202c"><g><text style="font: 15px &quot;Red Hat Text Regular&quot;, sans-serif; white-space: pre;" font-size="15px" font-family="'Red Hat Text Regular', sans-serif"><tspan x="12" y="29" dominant-baseline="ideographic">Promoting </tspan><tspan x="12" y="47" dominant-baseline="ideographic">cryptocurrency use </tspan><tspan x="12" y="65" dominant-baseline="ideographic">for global economic </tspan><tspan x="12" y="83" dominant-baseline="ideographic">participation.</tspan></text></g></g></g><g id="g-root-tx_decentra_18fptc61npdclk-fill" data-item-order="0" transform="translate(291, 723.22705078125)"><g id="tx_decentra_18fptc61npdclk-fill" stroke="none" fill="#1a202c"><g><text style="font: bold 20px &quot;Red Hat Text Regular&quot;, sans-serif; white-space: pre;" font-weight="bold" font-size="20px" font-family="'Red Hat Text Regular', sans-serif"><tspan x="12" y="35" dominant-baseline="ideographic">Decentralized </tspan><tspan x="12" y="59" dominant-baseline="ideographic">Infrastructure</tspan></text></g></g></g><g id="g-root-tx_2_dkgzie1npbxmp-fill" data-item-order="0" transform="translate(45, 297)"><g id="tx_2_dkgzie1npbxmp-fill" stroke="none" fill="#1a202c"><g><text style="font: bold 30px &quot;Red Hat Text Regular&quot;, sans-serif; white-space: pre;" font-weight="bold" font-size="30px" font-family="'Red Hat Text Regular', sans-serif"><tspan x="13" y="47.5" dominant-baseline="ideographic">2</tspan></text></g></g></g><g id="g-root-tx_cryptocu_1q6dcqu1npdde5-fill" data-item-order="0" transform="translate(291, 291.22698974609375)"><g id="tx_cryptocu_1q6dcqu1npdde5-fill" stroke="none" fill="#1a202c"><g><text style="font: bold 20px &quot;Red Hat Text Regular&quot;, sans-serif; white-space: pre;" font-weight="bold" font-size="20px" font-family="'Red Hat Text Regular', sans-serif"><tspan x="12" y="35" dominant-baseline="ideographic">Cryptocurrency </tspan><tspan x="12" y="59" dominant-baseline="ideographic">Adoption</tspan></text></g></g></g><g id="g-root-tx_increasi_1d3nhl21npby8e-fill" data-item-order="0" transform="translate(87, 423.2269287109375)"><g id="tx_increasi_1d3nhl21npby8e-fill" stroke="none" fill="#1a202c"><g><text style="font: 15px &quot;Red Hat Text Regular&quot;, sans-serif; white-space: pre;" font-size="15px" font-family="'Red Hat Text Regular', sans-serif"><tspan x="12" y="29" dominant-baseline="ideographic">Increasing access to </tspan><tspan x="12" y="47" dominant-baseline="ideographic">financial services for </tspan><tspan x="12" y="65" dominant-baseline="ideographic">underserved </tspan><tspan x="12" y="83" dominant-baseline="ideographic">populations.</tspan></text></g></g></g><g id="g-root-tx_reducedr_wb0m1npdcsk-fill" data-item-order="0" transform="translate(291, 135.22698974609375)"><g id="tx_reducedr_wb0m1npdcsk-fill" stroke="none" fill="#ffffff"><g><text style="font: bold 20px &quot;Red Hat Text Regular&quot;, sans-serif; white-space: pre;" font-weight="bold" font-size="20px" font-family="'Red Hat Text Regular', sans-serif"><tspan x="12" y="35" dominant-baseline="ideographic">Reduced </tspan><tspan x="12" y="59" dominant-baseline="ideographic">Remittance </tspan><tspan x="12" y="83" dominant-baseline="ideographic">Costs</tspan></text></g></g></g><g id="g-root-tx_3_1lzahty1npbxfp-fill" data-item-order="0" transform="translate(45, 441)"><g id="tx_3_1lzahty1npbxfp-fill" stroke="none" fill="#1a202c"><g><text style="font: bold 30px &quot;Red Hat Text Regular&quot;, sans-serif; white-space: pre;" font-weight="bold" font-size="30px" font-family="'Red Hat Text Regular', sans-serif"><tspan x="13" y="47.5" dominant-baseline="ideographic">3</tspan></text></g></g></g><g id="g-root-tx_financia_1lqjume1npde6e-fill" data-item-order="0" transform="translate(291, 435.22698974609375)"><g id="tx_financia_1lqjume1npde6e-fill" stroke="none" fill="#1a202c"><g><text style="font: bold 20px &quot;Red Hat Text Regular&quot;, sans-serif; white-space: pre;" font-weight="bold" font-size="20px" font-family="'Red Hat Text Regular', sans-serif"><tspan x="12" y="35" dominant-baseline="ideographic">Financial </tspan><tspan x="12" y="59" dominant-baseline="ideographic">Inclusion</tspan></text></g></g></g><g id="g-root-tx_economic_4gpt521npdc0b-fill" data-item-order="0" transform="translate(783, 435.22698974609375)"><g id="tx_economic_4gpt521npdc0b-fill" stroke="none" fill="#1a202c"><g><text style="font: bold 20px &quot;Red Hat Text Regular&quot;, sans-serif; white-space: pre;" font-weight="bold" font-size="20px" font-family="'Red Hat Text Regular', sans-serif"><tspan x="64.38" y="35" dominant-baseline="ideographic">Economic </tspan><tspan x="21.38" y="59" dominant-baseline="ideographic">Empowerment</tspan></text></g></g></g><g id="g-root-incr_1d1s2bq1npal1n-fill" data-item-order="0" transform="translate(940, 435.22698974609375)"></g><g id="g-root-tx_lowering_1lxf2km1npak8y-fill" data-item-order="0" transform="translate(81, 141.22698974609375)"><g id="tx_lowering_1lxf2km1npak8y-fill" stroke="none" fill="#1a202c"><g><text style="font: 15px &quot;Red Hat Text Regular&quot;, sans-serif; white-space: pre;" font-size="15px" font-family="'Red Hat Text Regular', sans-serif"><tspan x="12" y="32" dominant-baseline="ideographic">Lowering remittance </tspan><tspan x="12" y="50" dominant-baseline="ideographic">fees for better </tspan><tspan x="12" y="68" dominant-baseline="ideographic">financial support.</tspan></text></g></g></g><g id="g-root-tx_yapbaysp_4myk061npal8o-fill" data-item-order="0" transform="translate(321, 39)"><g id="tx_yapbaysp_4myk061npal8o-fill" stroke="none" fill="#1a202c"><g><text style="font: bold 25px &quot;Red Hat Text 700&quot;, sans-serif; white-space: pre;" font-weight="bold" font-size="25px" font-family="'Red Hat Text 700', sans-serif"><tspan x="16.39" y="44.5" dominant-baseline="ideographic">YapBay's Path to Empowerment</tspan></text></g></g></g><g id="g-root-tx_utilizin_v30csm1npdc08-fill" data-item-order="0" transform="translate(87, 567.22705078125)"><g id="tx_utilizin_v30csm1npdc08-fill" stroke="none" fill="#1a202c"><g><text style="font: 15px &quot;Red Hat Text Regular&quot;, sans-serif; white-space: pre;" font-size="15px" font-family="'Red Hat Text Regular', sans-serif"><tspan x="12" y="29" dominant-baseline="ideographic">Utilizing open-</tspan><tspan x="12" y="47" dominant-baseline="ideographic">source tech for </tspan><tspan x="12" y="65" dominant-baseline="ideographic">efficient remittance </tspan><tspan x="12" y="83" dominant-baseline="ideographic">services.</tspan></text></g></g></g><g id="g-root-tx_4_zs6z7q1npbztb-fill" data-item-order="0" transform="translate(45, 585)"><g id="tx_4_zs6z7q1npbztb-fill" stroke="none" fill="#1a202c"><g><text style="font: bold 30px &quot;Red Hat Text Regular&quot;, sans-serif; white-space: pre;" font-weight="bold" font-size="30px" font-family="'Red Hat Text Regular', sans-serif"><tspan x="12.73" y="47.5" dominant-baseline="ideographic">4</tspan></text></g></g></g><g id="g-root-tx_opensour_1cvjbgm1npdbtb-fill" data-item-order="0" transform="translate(291, 579.22705078125)"><g id="tx_opensour_1cvjbgm1npdbtb-fill" stroke="none" fill="#1a202c"><g><text style="font: bold 20px &quot;Red Hat Text Regular&quot;, sans-serif; white-space: pre;" font-weight="bold" font-size="20px" font-family="'Red Hat Text Regular', sans-serif"><tspan x="12" y="35" dominant-baseline="ideographic">Open-Source </tspan><tspan x="12" y="59" dominant-baseline="ideographic">Tech</tspan></text></g></g></g><g id="g-root-tx_implemen_dbqcau1npdede-fill" data-item-order="0" transform="translate(87, 699.22705078125)"><g id="tx_implemen_dbqcau1npdede-fill" stroke="none" fill="#1a202c"><g><text style="font: 15px &quot;Red Hat Text Regular&quot;, sans-serif; white-space: pre;" font-size="15px" font-family="'Red Hat Text Regular', sans-serif"><tspan x="12" y="32" dominant-baseline="ideographic">Implementing </tspan><tspan x="12" y="50" dominant-baseline="ideographic">decentralized </tspan><tspan x="12" y="68" dominant-baseline="ideographic">systems for </tspan><tspan x="12" y="86" dominant-baseline="ideographic">accessible financial </tspan><tspan x="12" y="104" dominant-baseline="ideographic">services.</tspan></text></g></g></g><g id="g-root-tx_5_hrjufa1npddl5-fill" data-item-order="0" transform="translate(45, 729)"><g id="tx_5_hrjufa1npddl5-fill" stroke="none" fill="#1a202c"><g><text style="font: bold 30px &quot;Red Hat Text Regular&quot;, sans-serif; white-space: pre;" font-weight="bold" font-size="30px" font-family="'Red Hat Text Regular', sans-serif"><tspan x="13" y="47.5" dominant-baseline="ideographic">5</tspan></text></g></g></g><g id="g-root-tx_1_7riyu1npaiv5-fill" data-item-order="0" transform="translate(45, 153)"><g id="tx_1_7riyu1npaiv5-fill" stroke="none" fill="#1a202c"><g><text style="font: bold 30px &quot;Red Hat Text Regular&quot;, sans-serif; white-space: pre;" font-weight="bold" font-size="30px" font-family="'Red Hat Text Regular', sans-serif"><tspan x="17.39" y="47.5" dominant-baseline="ideographic">1</tspan></text></g></g></g><g id="g-root-5.g-5_fr_zp2ls61npakg6-stroke" data-item-order="-795590" transform="translate(243.06201171875, 459.23095703125)"><g id="5.g-5_fr_zp2ls61npakg6-stroke" fill="none" stroke-linecap="round" stroke-linejoin="round" stroke-miterlimit="4" stroke="#1a202c" stroke-width="2"><g><path d="M 292.3765 196.1963L 472.8773 10L 484.233 21.7143C 506.7153 44.9066 537.637 57.9972 569.9377 57.9972L 569.944 57.9972C 563.6213 57.9972 557.5684 60.5596 553.1676 65.0993L 361.3047 263.0161C 309.8851 316.0582 239.1644 345.9972 165.2899 345.9972L 10 345.9972L 10 345.9273L 40.9377 297.9971L 10 250.0668L 10 249.9972L 165.2899 249.9972C 213.1866 249.9972 259.0385 230.5862 292.3765 196.1963Z"></path></g></g></g><g id="g-root-4.g-4_fr_v993nq1npal8g-stroke" data-item-order="-795586" transform="translate(243.06201171875, 459.21099853515625)"><g id="4.g-4_fr_v993nq1npal8g-stroke" fill="none" stroke-linecap="round" stroke-linejoin="round" stroke-miterlimit="4" stroke="#1a202c" stroke-width="2"><g><path d="M 384.737 58.0154C 344.6919 58.0154 306.356 41.7881 278.4807 13.0378L 275.5354 10L 197.7908 90.2073C 187.9965 100.3119 174.5249 106.0154 160.4525 106.0154L 10 106.0154L 10 106.0852L 40.9377 154.0154L 10 201.9456L 10 202.0154L 160.4525 202.0154C 200.5047 202.0154 238.8468 185.7823 266.7231 157.023L 347.368 73.8235C 357.1623 63.7189 370.6339 58.0154 384.7063 58.0154L 384.737 58.0154Z"></path></g></g></g><g id="g-root-3.g-3_fr_me8khy1npaive-stroke" data-item-order="-795582" transform="translate(243, 411.22698974609375)"><g id="3.g-3_fr_me8khy1npaive-stroke" fill="none" stroke-linecap="round" stroke-linejoin="round" stroke-miterlimit="4" stroke="#1a202c" stroke-width="2"><g><path d="M 10 105.9997L 41 58L 10 10.0003L 229.0735 10L 275.5977 57.9846L 229.0566 106L 10 105.9997Z"></path></g></g></g><g id="g-root-2.g-2_fr_me8khy1npaivg-stroke" data-item-order="-795578" transform="translate(243.0059814453125, 267.22698974609375)"><g id="2.g-2_fr_me8khy1npaivg-stroke" fill="none" stroke-linecap="round" stroke-linejoin="round" stroke-miterlimit="4" stroke="#1a202c" stroke-width="2"><g><path d="M 10 105.9926L 40.9937 58L 10 10.0074L 10 10L 160.5168 10C 200.5619 10 238.8979 26.2274 266.7732 54.9777L 347.4596 138.1971C 357.2536 148.2985 370.723 154 384.7929 154L 426.3996 154L 472.9332 202.0029L 426.4043 250L 384.7929 250C 344.7478 250 306.4119 233.7727 278.5366 205.0223L 197.8501 121.803C 188.0561 111.7015 174.5867 106 160.5168 106L 10 106L 10 105.9926Z"></path></g></g></g><g id="g-root-1.g-1_fr_hyf2di1npajnq-stroke" data-item-order="-795574" transform="translate(243.062255859375, 123.22698974609375)"><g id="1.g-1_fr_hyf2di1npajnq-stroke" fill="none" stroke-linecap="round" stroke-linejoin="round" stroke-miterlimit="4" stroke="#1a202c" stroke-width="2"><g><path d="M 10 105.9302L 40.9377 58L 10 10.0698L 10 10L 165.2884 10C 239.1639 10 309.8856 39.9398 361.3054 92.9832L 553.162 290.898C 557.5626 295.4377 563.6152 298 569.9377 298L 759.9375 298L 790.9377 346L 759.9376 393.9999L 569.9377 394C 537.637 394 506.7153 380.9094 484.233 357.7171L 292.3763 159.8023C 259.0383 125.4115 213.1857 106 165.2884 106L 10 106L 10 105.9302Z"></path></g></g></g><g id="g-root-tx_promotin_1qehiva1npbzt8-stroke" data-item-order="0" transform="translate(87, 279.22698974609375)"></g><g id="g-root-tx_decentra_18fptc61npdclk-stroke" data-item-order="0" transform="translate(291, 723.22705078125)"></g><g id="g-root-tx_2_dkgzie1npbxmp-stroke" data-item-order="0" transform="translate(45, 297)"></g><g id="g-root-tx_cryptocu_1q6dcqu1npdde5-stroke" data-item-order="0" transform="translate(291, 291.22698974609375)"></g><g id="g-root-tx_increasi_1d3nhl21npby8e-stroke" data-item-order="0" transform="translate(87, 423.2269287109375)"></g><g id="g-root-tx_reducedr_wb0m1npdcsk-stroke" data-item-order="0" transform="translate(291, 135.22698974609375)"></g><g id="g-root-tx_3_1lzahty1npbxfp-stroke" data-item-order="0" transform="translate(45, 441)"></g><g id="g-root-tx_financia_1lqjume1npde6e-stroke" data-item-order="0" transform="translate(291, 435.22698974609375)"></g><g id="g-root-tx_economic_4gpt521npdc0b-stroke" data-item-order="0" transform="translate(783, 435.22698974609375)"></g><g id="g-root-incr_1d1s2bq1npal1n-stroke" data-item-order="0" transform="translate(940, 435.22698974609375)"><g id="incr_1d1s2bq1npal1n-stroke" fill="none" stroke-linecap="round" stroke-linejoin="round" stroke-miterlimit="4" stroke="#1a202c" stroke-width="2"><g><path d="M 15 45.360001L 15 57L 29 57L 29 45.360001M 10 10M 11 49L 20.66 40.220001C 21.421238 39.532963 22.578762 39.532963 23.34 40.220001L 33 49M 25 11L 35 11L 35 21M 11 35L 35 11M 57 57L 29 57M 31 40L 31 27C 31 26.447716 31.447716 26 32 26L 40 26C 40.552284 26 41 26.447716 41 27L 41 57M 47 57L 47 14C 47 13.447716 47.447716 13 48 13L 56 13C 56.552284 13 57 13.447716 57 14L 57 57"></path></g></g></g><g id="g-root-tx_lowering_1lxf2km1npak8y-stroke" data-item-order="0" transform="translate(81, 141.22698974609375)"></g><g id="g-root-tx_yapbaysp_4myk061npal8o-stroke" data-item-order="0" transform="translate(321, 39)"></g><g id="g-root-tx_utilizin_v30csm1npdc08-stroke" data-item-order="0" transform="translate(87, 567.22705078125)"></g><g id="g-root-tx_4_zs6z7q1npbztb-stroke" data-item-order="0" transform="translate(45, 585)"></g><g id="g-root-tx_opensour_1cvjbgm1npdbtb-stroke" data-item-order="0" transform="translate(291, 579.22705078125)"></g><g id="g-root-tx_implemen_dbqcau1npdede-stroke" data-item-order="0" transform="translate(87, 699.22705078125)"></g><g id="g-root-tx_5_hrjufa1npddl5-stroke" data-item-order="0" transform="translate(45, 729)"></g><g id="g-root-tx_1_7riyu1npaiv5-stroke" data-item-order="0" transform="translate(45, 153)"></g></g></g></svg>