<?xml version="1.0" encoding="utf-8" standalone="yes"?>
<!DOCTYPE svg PUBLIC "-//W3C//DTD SVG 1.1//EN" "http://www.w3.org/Graphics/SVG/1.1/DTD/svg11.dtd">
<svg width="1026" height="578" viewBox="0 0 1026 578" style="fill:none;stroke:none;fill-rule:evenodd;clip-rule:evenodd;stroke-linecap:round;stroke-linejoin:round;stroke-miterlimit:1.5;" version="1.1" xmlns="http://www.w3.org/2000/svg" xmlns:xlink="http://www.w3.org/1999/xlink"><style class="text-font-style fontImports" data-font-family="Red Hat Text">@font-face {font-family: 'Red Hat Text Regular';src: url(https://fonts.napkin.ai/google-fonts/20250207/red-hat-text/red-hat-text_regular.ttf) format("truetype");font-weight: normal;font-style: normal;}</style><g id="items" style="isolation: isolate"><g id="blend" style="mix-blend-mode: normal"><g id="g-root-2.g-2_fr_hrjnyv1p2x98s-fill" data-item-order="-426722" transform="translate(316.5, 255.09808349609375)"><g id="2.g-2_fr_hrjnyv1p2x98s-fill" stroke="none" fill="#38b2ac"><g><path d="M 41.0002 58L 10 106L 241.074 106L 287.598 58.0153L 241.057 10L 10.0001 10.0001L 41.0002 58Z"></path></g></g></g><g id="g-root-3.g-3_fr_dbq5uf1p2xa12-fill" data-item-order="-426718" transform="translate(316.5, 303.11175537109375)"><g id="3.g-3_fr_dbq5uf1p2xa12-fill" stroke="none" fill="#38b2ac"><g><path d="M 41.0002 153.985L 10 201.985L 172.523 201.985C 212.569 201.985 250.905 185.757 278.78 157.007L 359.466 73.7876C 369.26 63.6862 382.73 57.9847 396.8 57.9847L 396.769 57.9847C 356.717 57.9847 318.375 41.7516 290.499 12.9923L 287.598 10L 209.857 90.1817C 200.063 100.2832 186.593 105.9847 172.523 105.9847L 10.0001 105.9851L 41.0002 153.985Z"></path></g></g></g><g id="g-root-1.g-1_fr_8vwnpz1p2xatc-fill" data-item-order="-426714" transform="translate(316.5, 111.22698974609375)"><g id="1.g-1_fr_8vwnpz1p2xatc-fill" stroke="none" fill="#38b2ac"><g><path d="M 396.893 250C 356.841 250 318.499 233.767 290.623 205.008L 209.978 121.808C 200.184 111.704 186.712 106 172.64 106L 10 105.9999L 41.0002 57.9999L 10.0001 10L 172.64 10C 212.692 10 251.034 26.2331 278.91 54.9924L 359.555 138.192C 369.35 148.296 382.821 154 396.893 154L 578 153.87L 609 201.87L 578 249.87C 521.734 249.87 453.25 250 396.893 250Z"></path></g></g></g><g id="g-root-tx_pathtogl_9nh31p2xbm2-fill" data-item-order="0" transform="translate(358, 27)"><g id="tx_pathtogl_9nh31p2xbm2-fill" stroke="none" fill="#1a202c"><g><text style="font: bold 25px &quot;Red Hat Text Regular&quot;, sans-serif; white-space: pre;" font-weight="bold" font-size="25px" font-family="'Red Hat Text Regular', sans-serif"><tspan x="13.26" y="44.5" dominant-baseline="ideographic">Path to Global Prosperity</tspan></text></g></g></g><g id="g-root-tx_1_1haq61j1p2xamb-fill" data-item-order="0" transform="translate(118.5, 141)"><g id="tx_1_1haq61j1p2xamb-fill" stroke="none" fill="#1a202c"><g><text style="font: bold 30px &quot;Red Hat Text Regular&quot;, sans-serif; white-space: pre;" font-weight="bold" font-size="30px" font-family="'Red Hat Text Regular', sans-serif"><tspan x="17.39" y="47.5" dominant-baseline="ideographic">1</tspan></text></g></g></g><g id="g-root-tx_freedomt_18f35sn1p2xbf0-fill" data-item-order="0" transform="translate(160.5, 129.22698974609375)"><g id="tx_freedomt_18f35sn1p2xbf0-fill" stroke="none" fill="#1a202c"><g><text style="font: 15px &quot;Red Hat Text Regular&quot;, sans-serif; white-space: pre;" font-size="15px" font-family="'Red Hat Text Regular', sans-serif"><tspan x="12" y="32" dominant-baseline="ideographic">Freedom to use and </tspan><tspan x="12" y="50" dominant-baseline="ideographic">create money as </tspan><tspan x="12" y="68" dominant-baseline="ideographic">desired.</tspan></text></g></g></g><g id="g-root-tx_monetary_1d3nb4n1p301zc-fill" data-item-order="0" transform="translate(364.5, 135.22698974609375)"><g id="tx_monetary_1d3nb4n1p301zc-fill" stroke="none" fill="#ffffff"><g><text style="font: bold 20px &quot;Red Hat Text Regular&quot;, sans-serif; white-space: pre;" font-weight="bold" font-size="20px" font-family="'Red Hat Text Regular', sans-serif"><tspan x="12" y="35" dominant-baseline="ideographic">Monetary </tspan><tspan x="12" y="59" dominant-baseline="ideographic">Freedom</tspan></text></g></g></g><g id="g-root-tx_widespre_qofmdz1p2xame-fill" data-item-order="0" transform="translate(160.5, 267.22698974609375)"><g id="tx_widespre_qofmdz1p2xame-fill" stroke="none" fill="#1a202c"><g><text style="font: 15px &quot;Red Hat Text Regular&quot;, sans-serif; white-space: pre;" font-size="15px" font-family="'Red Hat Text Regular', sans-serif"><tspan x="12" y="29" dominant-baseline="ideographic">Widespread </tspan><tspan x="12" y="47" dominant-baseline="ideographic">acceptance and use </tspan><tspan x="12" y="65" dominant-baseline="ideographic">of cryptocurrency </tspan><tspan x="12" y="83" dominant-baseline="ideographic">globally.</tspan></text></g></g></g><g id="g-root-tx_2_v494if1p2x9u5-fill" data-item-order="0" transform="translate(118.5, 285)"><g id="tx_2_v494if1p2x9u5-fill" stroke="none" fill="#1a202c"><g><text style="font: bold 30px &quot;Red Hat Text Regular&quot;, sans-serif; white-space: pre;" font-weight="bold" font-size="30px" font-family="'Red Hat Text Regular', sans-serif"><tspan x="13" y="47.5" dominant-baseline="ideographic">2</tspan></text></g></g></g><g id="g-root-tx_cryptoad_18ntt071p302rl-fill" data-item-order="0" transform="translate(364.5, 279.22698974609375)"><g id="tx_cryptoad_18ntt071p302rl-fill" stroke="none" fill="#1a202c"><g><text style="font: bold 20px &quot;Red Hat Text Regular&quot;, sans-serif; white-space: pre;" font-weight="bold" font-size="20px" font-family="'Red Hat Text Regular', sans-serif"><tspan x="12" y="35" dominant-baseline="ideographic">Crypto </tspan><tspan x="12" y="59" dominant-baseline="ideographic">Adoption</tspan></text></g></g></g><g id="g-root-tx_universa_1qehcev1p303k6-fill" data-item-order="0" transform="translate(724.5, 279.22698974609375)"><g id="tx_universa_1qehcev1p303k6-fill" stroke="none" fill="#1a202c"><g><text style="font: bold 20px &quot;Red Hat Text Regular&quot;, sans-serif; white-space: pre;" font-weight="bold" font-size="20px" font-family="'Red Hat Text Regular', sans-serif"><tspan x="22.36" y="35" dominant-baseline="ideographic">Universal </tspan><tspan x="11.94" y="59" dominant-baseline="ideographic">Prosperity</tspan></text></g></g></g><g id="g-root-davi_252qf1p2xamh-fill" data-item-order="0" transform="translate(832.5, 279.22698974609375)"></g><g id="g-root-tx_seamless_ddll3r1p2x91k-fill" data-item-order="0" transform="translate(160.5, 399.22698974609375)"><g id="tx_seamless_ddll3r1p2x91k-fill" stroke="none" fill="#1a202c"><g><text style="font: 15px &quot;Red Hat Text Regular&quot;, sans-serif; white-space: pre;" font-size="15px" font-family="'Red Hat Text Regular', sans-serif"><tspan x="12" y="32" dominant-baseline="ideographic">Seamless trading of </tspan><tspan x="12" y="50" dominant-baseline="ideographic">money, goods and </tspan><tspan x="12" y="68" dominant-baseline="ideographic">services across </tspan><tspan x="12" y="86" dominant-baseline="ideographic">international </tspan><tspan x="12" y="104" dominant-baseline="ideographic">borders.</tspan></text></g></g></g><g id="g-root-tx_3_hssm531p2xbf3-fill" data-item-order="0" transform="translate(118.5, 429)"><g id="tx_3_hssm531p2xbf3-fill" stroke="none" fill="#1a202c"><g><text style="font: bold 30px &quot;Red Hat Text Regular&quot;, sans-serif; white-space: pre;" font-weight="bold" font-size="30px" font-family="'Red Hat Text Regular', sans-serif"><tspan x="13" y="47.5" dominant-baseline="ideographic">3</tspan></text></g></g></g><g id="g-root-tx_crossbor_zs6srb1p303ka-fill" data-item-order="0" transform="translate(364.5, 423.22698974609375)"><g id="tx_crossbor_zs6srb1p303ka-fill" stroke="none" fill="#1a202c"><g><text style="font: bold 20px &quot;Red Hat Text Regular&quot;, sans-serif; white-space: pre;" font-weight="bold" font-size="20px" font-family="'Red Hat Text Regular', sans-serif"><tspan x="12" y="35" dominant-baseline="ideographic">Cross-Border </tspan><tspan x="12" y="59" dominant-baseline="ideographic">Trade</tspan></text></g></g></g><g id="g-root-2.g-2_fr_hrjnyv1p2x98s-stroke" data-item-order="-426722" transform="translate(316.5, 255.09808349609375)"><g id="2.g-2_fr_hrjnyv1p2x98s-stroke" fill="none" stroke-linecap="round" stroke-linejoin="round" stroke-miterlimit="4" stroke="#1a202c" stroke-width="2"><g><path d="M 41.0002 58L 10 106L 241.0738 106L 287.598 58.0153L 241.057 10L 10.0001 10.0001L 41.0002 58Z"></path></g></g></g><g id="g-root-3.g-3_fr_dbq5uf1p2xa12-stroke" data-item-order="-426718" transform="translate(316.5, 303.11175537109375)"><g id="3.g-3_fr_dbq5uf1p2xa12-stroke" fill="none" stroke-linecap="round" stroke-linejoin="round" stroke-miterlimit="4" stroke="#1a202c" stroke-width="2"><g><path d="M 41.0002 153.9849L 10 201.9849L 172.5235 201.9847C 212.5686 201.9847 250.9046 185.7573 278.7798 157.007L 359.4663 73.7876C 369.2603 63.6862 382.7296 57.9847 396.7995 57.9847L 396.7691 57.9847C 356.7169 57.9847 318.3748 41.7516 290.4985 12.9923L 287.5981 10L 209.8568 90.1817C 200.0628 100.2832 186.5934 105.9847 172.5235 105.9847L 10.0001 105.9851L 41.0002 153.9849Z"></path></g></g></g><g id="g-root-1.g-1_fr_8vwnpz1p2xatc-stroke" data-item-order="-426714" transform="translate(316.5, 111.22698974609375)"><g id="1.g-1_fr_8vwnpz1p2xatc-stroke" fill="none" stroke-linecap="round" stroke-linejoin="round" stroke-miterlimit="4" stroke="#1a202c" stroke-width="2"><g><path d="M 396.8935 250C 356.8413 250 318.4992 233.7669 290.6229 205.0076L 209.978 121.8081C 200.1837 111.7035 186.7121 106 172.6397 106L 10 105.9999L 41.0002 57.9999L 10.0001 10L 172.6397 10C 212.6919 10 251.034 26.2331 278.9103 54.9924L 359.5552 138.1919C 369.3495 148.2965 382.821 154 396.8935 154L 578.0001 153.8702L 609.0002 201.8701L 578 249.8701C 521.7335 249.8701 453.2504 250 396.8935 250Z"></path></g></g></g><g id="g-root-tx_pathtogl_9nh31p2xbm2-stroke" data-item-order="0" transform="translate(358, 27)"></g><g id="g-root-tx_1_1haq61j1p2xamb-stroke" data-item-order="0" transform="translate(118.5, 141)"></g><g id="g-root-tx_freedomt_18f35sn1p2xbf0-stroke" data-item-order="0" transform="translate(160.5, 129.22698974609375)"></g><g id="g-root-tx_monetary_1d3nb4n1p301zc-stroke" data-item-order="0" transform="translate(364.5, 135.22698974609375)"></g><g id="g-root-tx_widespre_qofmdz1p2xame-stroke" data-item-order="0" transform="translate(160.5, 267.22698974609375)"></g><g id="g-root-tx_2_v494if1p2x9u5-stroke" data-item-order="0" transform="translate(118.5, 285)"></g><g id="g-root-tx_cryptoad_18ntt071p302rl-stroke" data-item-order="0" transform="translate(364.5, 279.22698974609375)"></g><g id="g-root-tx_universa_1qehcev1p303k6-stroke" data-item-order="0" transform="translate(724.5, 279.22698974609375)"></g><g id="g-root-davi_252qf1p2xamh-stroke" data-item-order="0" transform="translate(832.5, 279.22698974609375)"><g id="davi_252qf1p2xamh-stroke" fill="none" stroke-linecap="round" stroke-linejoin="round" stroke-miterlimit="4" stroke="#1a202c" stroke-width="2"><g><path d="M 33.999992 26.200014C 36.761391 26.200014 38.999992 23.961435 38.999992 21.200016C 38.999992 18.438578 36.761391 16.200018 33.999992 16.200018C 31.238594 16.200018 28.999935 18.438578 28.999935 21.200016C 28.999935 23.961435 31.238594 26.200014 33.999992 26.200014ZM 10 10M 30.799994 47.799988L 34.099995 40.199993L 37.39999 47.799988C 37.999992 48.799988 38.999992 49.599987 40.199993 49.599987C 40.599991 49.599987 40.999992 49.599987 41.39999 49.39999C 42.999989 48.799988 43.599987 46.999989 42.799988 45.39999L 37.999992 34.599995L 37.999992 32.599995L 46.39999 29.399994C 47.799988 28.799994 48.599987 27.199995 48.199989 25.599997C 47.999989 24.799995 47.39999 24.199995 46.599987 23.799995C 45.799988 23.399996 44.999989 23.399996 44.199989 23.799995L 37.599991 26.399994L 30.599995 26.399994L 23.999935 23.799995C 23.199936 23.399996 22.399937 23.399996 21.599937 23.799995C 20.799936 24.199995 20.199936 24.799995 19.999937 25.599997C 19.599937 27.199995 20.399937 28.799994 21.799936 29.399994L 30.199995 32.599995L 30.199995 34.599995L 25.399935 45.39999C 24.599936 46.999989 25.199936 48.799988 26.799934 49.39999C 27.199934 49.599987 27.599934 49.599987 27.999935 49.599987C 29.199934 49.599987 30.199995 48.799988 30.799994 47.799988ZM 23.343756 29.968754L 20.799976 30.399994C 19.199978 30.799994 18.199978 32.399994 18.599977 33.999992C 18.999977 35.599991 20.599977 36.599991 22.199976 36.199993L 30.203194 34.546795M 10 10M 26.187494 43.656189L 24.599976 44.799988C 23.599976 45.39999 22.399977 45.39999 21.399977 44.999989C 20.999977 44.799988 20.680677 44.592987 20.399977 44.199989C 19.399977 42.799988 19.799976 40.999992 21.199976 39.999992L 28.156235 34.999992M 44.85619 29.968754L 47.39999 30.399994C 48.999989 30.799994 49.999989 32.399994 49.599987 33.999992C 49.199989 35.599991 47.599987 36.599991 45.999989 36.199993L 37.996792 34.546795M 42.01239 43.656189L 43.599987 44.799988C 44.599987 45.39999 45.799988 45.39999 46.799988 44.999989C 47.199989 44.799988 47.519188 44.592987 47.799988 44.199989C 48.799988 42.799988 48.39999 40.999992 46.999989 39.999992L 40.043591 34.999992M 33.999992 56.499985C 46.426388 56.499985 56.499985 46.426388 56.499985 33.999992C 56.499985 21.573576 46.426388 11.5 33.999992 11.5C 21.573576 11.5 11.5 21.573576 11.5 33.999992C 11.5 46.426388 21.573576 56.499985 33.999992 56.499985Z"></path></g></g></g><g id="g-root-tx_seamless_ddll3r1p2x91k-stroke" data-item-order="0" transform="translate(160.5, 399.22698974609375)"></g><g id="g-root-tx_3_hssm531p2xbf3-stroke" data-item-order="0" transform="translate(118.5, 429)"></g><g id="g-root-tx_crossbor_zs6srb1p303ka-stroke" data-item-order="0" transform="translate(364.5, 423.22698974609375)"></g></g></g></svg>